<?xml version="1.0" encoding="UTF-8"?>
<svg id="Layer_2" data-name="Layer 2" xmlns="http://www.w3.org/2000/svg" viewBox="0 0 101.17 123.06">
  <defs>
    <style>
      .cls-1 {
        fill: #818e38;
      }
    </style>
  </defs>
  <g id="Layer_1-2" data-name="Layer 1">
    <path class="cls-1" d="M50.03,0c9.83,0,18.01,1.12,24.57,3.35,6.55,2.23,11.8,5.44,15.74,9.6,3.94,4.17,6.74,9.23,8.37,15.19,1.64,5.96,2.46,12.58,2.46,19.88V117.25c-4.77,1.04-11.39,2.27-19.88,3.69-8.49,1.41-18.76,2.12-30.82,2.12-7.59,0-14.48-.67-20.66-2.01s-11.5-3.53-15.97-6.59c-4.47-3.05-7.89-7.04-10.27-11.95s-3.57-10.94-3.57-18.09,1.37-12.65,4.13-17.42c2.75-4.76,6.44-8.56,11.06-11.39,4.61-2.83,9.9-4.87,15.85-6.14,5.95-1.26,12.13-1.9,18.54-1.9,4.32,0,8.15,.19,11.5,.56s6.06,.86,8.15,1.45v-3.13c0-5.66-1.71-10.2-5.14-13.62-3.43-3.42-9.38-5.14-17.86-5.14-5.66,0-11.24,.41-16.75,1.23s-10.27,1.97-14.29,3.46L10.95,5.58c1.93-.59,4.35-1.23,7.26-1.9,2.9-.67,6.06-1.26,9.49-1.79,3.42-.52,7.04-.97,10.83-1.34,3.79-.36,7.62-.55,11.5-.55Zm2.68,97.37c3.27,0,6.4-.07,9.38-.22s5.36-.37,7.15-.67v-25.24c-1.34-.3-3.35-.59-6.03-.89-2.68-.3-5.14-.45-7.37-.45-3.13,0-6.07,.19-8.82,.56-2.76,.37-5.17,1.08-7.26,2.12s-3.72,2.46-4.91,4.24c-1.19,1.79-1.79,4.02-1.79,6.7,0,5.21,1.75,8.82,5.25,10.83,3.49,2.02,8.29,3.02,14.4,3.02Z"/>
  </g>
</svg>