<?xml version="1.0" encoding="UTF-8"?>
<svg id="Layer_2" data-name="Layer 2" xmlns="http://www.w3.org/2000/svg" viewBox="0 0 94.91 123.71">
  <defs>
    <style>
      .cls-1 {
        fill: #818e38;
      }
    </style>
  </defs>
  <g id="Layer_1-2" data-name="Layer 1">
    <path class="cls-1" d="M0,61.86c0-8.49,1.37-16.49,4.13-24.01,2.75-7.52,6.73-14.07,11.95-19.65,5.21-5.58,11.54-10.01,18.98-13.29C42.5,1.64,50.99,0,60.52,0c6.25,0,11.98,.56,17.2,1.68,5.21,1.12,10.27,2.72,15.19,4.8l-6.92,26.57c-3.13-1.19-6.55-2.23-10.27-3.13-3.72-.89-7.89-1.34-12.51-1.34-9.83,0-17.16,3.05-22,9.16-4.84,6.11-7.26,14.14-7.26,24.12,0,10.57,2.27,18.76,6.81,24.56,4.54,5.81,12.47,8.71,23.78,8.71,4.02,0,8.34-.37,12.95-1.12,4.61-.74,8.86-1.93,12.73-3.57l4.69,27.24c-3.87,1.64-8.71,3.05-14.52,4.24s-12.21,1.79-19.2,1.79c-10.72,0-19.95-1.6-27.69-4.8-7.74-3.2-14.11-7.55-19.09-13.06-4.99-5.51-8.64-12.02-10.94-19.54-2.31-7.51-3.47-15.66-3.47-24.45Z"/>
  </g>
</svg>