<?xml version="1.0" encoding="UTF-8"?>
<svg id="Layer_2" data-name="Layer 2" xmlns="http://www.w3.org/2000/svg" viewBox="0 0 197.48 34.48">
  <defs>
    <style>
      .cls-1 {
        fill: #6e6f6f;
      }
    </style>
  </defs>
  <g id="Layer_1-2" data-name="Layer 1">
    <g>
      <path class="cls-1" d="M15.29,34.48c-4.98,0-8.77-1.38-11.38-4.16-2.61-2.77-3.91-6.7-3.91-11.8,0-2.53,.4-4.8,1.19-6.79,.8-1.99,1.89-3.67,3.27-5.04s3.03-2.41,4.95-3.12,3.99-1.06,6.23-1.06c1.3,0,2.48,.1,3.54,.29s1.99,.41,2.79,.66,1.46,.51,1.99,.77c.53,.26,.91,.47,1.15,.62l-1.99,5.57c-.94-.5-2.04-.93-3.29-1.28s-2.67-.53-4.27-.53c-1.06,0-2.1,.18-3.12,.53s-1.92,.92-2.7,1.7-1.41,1.79-1.88,3.03c-.47,1.24-.71,2.74-.71,4.51,0,1.41,.15,2.73,.46,3.96s.81,2.28,1.5,3.16,1.6,1.58,2.72,2.1c1.12,.52,2.47,.77,4.07,.77,1,0,1.9-.06,2.7-.18s1.5-.26,2.12-.42,1.16-.35,1.63-.55,.9-.4,1.28-.58l1.9,5.53c-.97,.59-2.34,1.12-4.11,1.59-1.75,.48-3.8,.72-6.13,.72Z"/>
      <path class="cls-1" d="M43.54,16.44c-.59-.15-1.28-.3-2.08-.46-.79-.16-1.65-.24-2.56-.24-.41,0-.91,.04-1.48,.11-.58,.07-1.01,.16-1.3,.24v17.77h-6.59V11.85c1.18-.41,2.57-.8,4.18-1.17,1.61-.37,3.4-.55,5.37-.55,.35,0,.78,.02,1.28,.07,.5,.04,1,.1,1.5,.18,.5,.07,1,.16,1.5,.26s.93,.23,1.28,.38l-1.1,5.42Z"/>
      <path class="cls-1" d="M47.07,22.41c0-2.06,.32-3.87,.95-5.42s1.47-2.84,2.5-3.87,2.22-1.81,3.56-2.34,2.72-.8,4.13-.8c3.3,0,5.91,1.01,7.82,3.03,1.92,2.02,2.87,4.99,2.87,8.91,0,.38-.02,.8-.04,1.26-.03,.46-.06,.86-.09,1.22h-14.93c.15,1.36,.78,2.43,1.9,3.23s2.62,1.19,4.51,1.19c1.21,0,2.39-.11,3.56-.33,1.16-.22,2.11-.49,2.85-.82l.88,5.35c-.35,.18-.83,.35-1.42,.53s-1.25,.33-1.97,.46-1.5,.24-2.32,.33c-.83,.09-1.65,.13-2.48,.13-2.09,0-3.91-.31-5.46-.93s-2.83-1.47-3.85-2.54c-1.02-1.08-1.77-2.35-2.25-3.82-.47-1.47-.72-3.06-.72-4.77Zm15.48-2.52c-.03-.56-.13-1.11-.29-1.64-.16-.53-.41-1-.75-1.41s-.77-.75-1.28-1.02c-.52-.27-1.16-.4-1.92-.4s-1.37,.13-1.9,.38-.97,.58-1.33,.99c-.35,.41-.63,.89-.82,1.44s-.33,1.1-.42,1.66h8.71Z"/>
      <path class="cls-1" d="M82.35,9.99c1.95,0,3.57,.22,4.86,.66,1.3,.44,2.33,1.08,3.12,1.9,.78,.83,1.33,1.83,1.66,3.01,.32,1.18,.49,2.49,.49,3.93v13.7c-.94,.21-2.25,.45-3.93,.73s-3.71,.42-6.1,.42c-1.5,0-2.87-.13-4.09-.4-1.22-.27-2.28-.7-3.16-1.3-.88-.6-1.56-1.39-2.03-2.36-.47-.97-.71-2.17-.71-3.58s.27-2.5,.82-3.45c.54-.94,1.27-1.69,2.19-2.25,.91-.56,1.96-.96,3.14-1.21s2.4-.38,3.67-.38c.85,0,1.61,.04,2.28,.11,.66,.07,1.2,.17,1.61,.29v-.62c0-1.12-.34-2.02-1.02-2.7-.68-.68-1.86-1.02-3.54-1.02-1.12,0-2.23,.08-3.32,.24s-2.03,.39-2.83,.69l-.84-5.3c.38-.12,.86-.24,1.44-.38,.58-.13,1.2-.25,1.88-.35s1.39-.19,2.14-.27c.74-.07,1.5-.11,2.27-.11Zm.53,19.27c.65,0,1.27-.01,1.86-.04,.59-.03,1.06-.07,1.42-.13v-5c-.27-.06-.66-.12-1.19-.18s-1.02-.09-1.46-.09c-.62,0-1.2,.04-1.75,.11-.55,.07-1.02,.21-1.44,.42-.41,.21-.74,.49-.97,.84-.24,.35-.35,.8-.35,1.33,0,1.03,.35,1.75,1.04,2.14,.68,.4,1.63,.6,2.84,.6Z"/>
      <path class="cls-1" d="M98.22,4.82l6.59-1.06v6.85h7.91v5.48h-7.91v8.18c0,1.39,.24,2.49,.73,3.32s1.47,1.24,2.94,1.24c.71,0,1.44-.07,2.19-.2s1.44-.32,2.05-.55l.93,5.13c-.8,.32-1.68,.6-2.65,.84s-2.17,.35-3.58,.35c-1.8,0-3.29-.24-4.46-.73s-2.12-1.16-2.83-2.03-1.2-1.92-1.48-3.16-.42-2.61-.42-4.11V4.82h0Z"/>
      <path class="cls-1" d="M125.27,3.89c0,1.21-.39,2.16-1.17,2.85-.78,.69-1.7,1.04-2.76,1.04s-1.98-.35-2.76-1.04-1.17-1.64-1.17-2.85,.39-2.16,1.17-2.85c.78-.69,1.7-1.04,2.76-1.04s1.98,.35,2.76,1.04c.78,.69,1.17,1.64,1.17,2.85Zm-.62,29.97h-6.59V10.61h6.59v23.25Z"/>
      <path class="cls-1" d="M137.19,33.86c-1.51-2.95-3.04-6.39-4.59-10.34-1.55-3.95-3.02-8.25-4.41-12.91h6.98c.3,1.15,.64,2.39,1.04,3.73,.4,1.34,.81,2.7,1.24,4.07s.86,2.7,1.29,4,.85,2.48,1.27,3.54c.38-1.06,.8-2.24,1.24-3.54s.88-2.63,1.31-4,.84-2.73,1.24-4.07c.4-1.34,.75-2.59,1.04-3.73h6.81c-1.39,4.66-2.86,8.96-4.41,12.91s-3.08,7.4-4.59,10.34h-5.46Z"/>
      <path class="cls-1" d="M154.04,22.41c0-2.06,.32-3.87,.95-5.42s1.47-2.84,2.5-3.87,2.22-1.81,3.56-2.34,2.72-.8,4.13-.8c3.3,0,5.91,1.01,7.82,3.03,1.92,2.02,2.87,4.99,2.87,8.91,0,.38-.02,.8-.04,1.26-.03,.46-.06,.86-.09,1.22h-14.94c.15,1.36,.78,2.43,1.9,3.23s2.62,1.19,4.51,1.19c1.21,0,2.39-.11,3.56-.33,1.16-.22,2.11-.49,2.85-.82l.88,5.35c-.35,.18-.83,.35-1.42,.53s-1.25,.33-1.97,.46-1.5,.24-2.32,.33c-.83,.09-1.65,.13-2.48,.13-2.09,0-3.91-.31-5.46-.93s-2.83-1.47-3.85-2.54c-1.02-1.08-1.77-2.35-2.25-3.82-.46-1.47-.71-3.06-.71-4.77Zm15.48-2.52c-.03-.56-.13-1.11-.29-1.64-.16-.53-.41-1-.75-1.41s-.77-.75-1.28-1.02c-.52-.27-1.16-.4-1.92-.4s-1.37,.13-1.9,.38-.97,.58-1.33,.99c-.35,.41-.63,.89-.82,1.44s-.33,1.1-.42,1.66h8.71Z"/>
      <path class="cls-1" d="M187.64,29.13c1.21,0,2.06-.12,2.56-.35,.5-.24,.75-.69,.75-1.37,0-.53-.32-1-.97-1.39-.65-.4-1.64-.85-2.96-1.35-1.03-.38-1.97-.78-2.81-1.19s-1.55-.91-2.14-1.48c-.59-.58-1.05-1.26-1.37-2.06-.33-.8-.49-1.75-.49-2.87,0-2.18,.81-3.9,2.43-5.17,1.62-1.27,3.85-1.9,6.67-1.9,1.42,0,2.77,.13,4.07,.38s2.33,.52,3.09,.82l-1.15,5.13c-.77-.27-1.6-.5-2.5-.71s-1.91-.31-3.03-.31c-2.06,0-3.09,.58-3.09,1.72,0,.26,.04,.5,.13,.71s.27,.41,.53,.6,.62,.4,1.08,.62,1.04,.47,1.75,.73c1.44,.54,2.64,1.06,3.58,1.58s1.69,1.08,2.23,1.68,.93,1.27,1.15,2.01c.22,.73,.33,1.59,.33,2.56,0,2.29-.86,4.03-2.59,5.2s-4.16,1.76-7.32,1.76c-2.06,0-3.78-.18-5.15-.53s-2.32-.65-2.85-.88l1.11-5.35c1.12,.44,2.27,.79,3.45,1.04,1.19,.24,2.36,.37,3.51,.37Z"/>
    </g>
  </g>
</svg>