<?xml version="1.0" encoding="UTF-8"?>
<svg id="Layer_2" data-name="Layer 2" xmlns="http://www.w3.org/2000/svg" viewBox="0 0 101.38 173.3">
  <defs>
    <style>
      .cls-1 {
        fill: #818e38;
      }
    </style>
  </defs>
  <g id="Layer_1-2" data-name="Layer 1">
    <path class="cls-1" d="M0,173.3V5.36L33.27,0V56.28c2.23-.74,5.1-1.45,8.6-2.12s6.88-1.01,10.16-1.01c9.53,0,17.45,1.3,23.78,3.91,6.33,2.61,11.39,6.29,15.19,11.05,3.8,4.77,6.48,10.42,8.04,16.97s2.34,13.84,2.34,21.89v66.32h-33.27v-62.31c0-10.72-1.38-18.31-4.13-22.78-2.76-4.47-7.85-6.7-15.3-6.7-2.98,0-5.77,.26-8.37,.78-2.61,.52-4.95,1.08-7.03,1.68v89.33H0Z"/>
  </g>
</svg>