<?xml version="1.0" encoding="UTF-8"?>
<svg id="Layer_2" data-name="Layer 2" xmlns="http://www.w3.org/2000/svg" viewBox="0 0 77.93 154.75">
  <defs>
    <style>
      .cls-1 {
        fill: #818e38;
      }
    </style>
  </defs>
  <g id="Layer_1-2" data-name="Layer 1">
    <path class="cls-1" d="M0,5.36L33.28,0V34.61h39.97v27.69H33.28v41.31c0,7,1.23,12.58,3.68,16.75,2.46,4.17,7.4,6.25,14.85,6.25,3.57,0,7.26-.34,11.05-1.01,3.8-.67,7.26-1.6,10.38-2.79l4.69,25.91c-4.02,1.64-8.49,3.05-13.4,4.24-4.91,1.19-10.94,1.79-18.09,1.79-9.08,0-16.6-1.23-22.55-3.69-5.96-2.46-10.72-5.88-14.29-10.27-3.57-4.39-6.07-9.71-7.48-15.97-1.42-6.25-2.12-13.18-2.12-20.77V5.36H0Z"/>
  </g>
</svg>