<?xml version="1.0" encoding="utf-8"?>
<!-- Generator: Adobe Illustrator 26.5.0, SVG Export Plug-In . SVG Version: 6.00 Build 0)  -->
<svg version="1.1" id="Layer_2_00000037692595271811258010000017219925135862891140_"
	 xmlns="http://www.w3.org/2000/svg" xmlns:xlink="http://www.w3.org/1999/xlink" x="0px" y="0px" viewBox="0 0 535 841.2"
	 style="enable-background:new 0 0 535 841.2;" xml:space="preserve">
<style type="text/css">
	.st0{fill:#8E8733;}
</style>
<g id="Layer_1-2">
	<g>
		<g>
			<path class="st0" d="M471.3,339.7c-7.8,42.6-28.4,78.8-58.9,109.3c-8.3,8.3-15.6,17-22,27c-20.8,31.7-28.6,66.9-27,104.3
				c0.2,5.9-1.4,7.8-7.6,7.8c-29.3-0.2-58.7-0.2-88-0.2s-57.5-0.2-86.3,0.2c-7.6,0-10.6-1.4-10.2-9.7c1.4-23.2-1.4-45.7-9-67.7
				c-9.7-28.9-29.1-50.2-48.7-72.2c-47.1-53-63.6-115.2-48-184.3c0.9-3.5,1.7-7.3,2.8-10.9c14,4.3,27,10.4,39.3,18.7
				c20.3,14,33.1,34.1,46.4,54.4c31.7,48.7,77.1,75.5,135.1,78.1c93.4,4.3,169.8-66.5,176.9-155.4c1.4,4.3,2.6,8.8,3.5,13
				C476.1,279.8,477,309.4,471.3,339.7z"/>
			<path class="st0" d="M266.7,619.3c-23.9,0-47.8,0.2-71.4-0.2c-5.9,0-8,0.9-7.8,7.6c0.5,12.5,0,25.1,0.2,37.6
				c0.2,12.3,6.2,19.2,18.7,19.4c40.9,0.2,82.1,0.2,123,0c12.3,0,18.5-6.9,18.7-19.4c0.2-12.8-0.2-25.5,0.2-38.3
				c0.2-5.7-1.9-6.6-7.1-6.6C316.1,619.3,291.5,619.3,266.7,619.3L266.7,619.3z"/>
			<path class="st0" d="M222.9,715.6c7.6,19.9,24.8,31.5,45.2,31.5c19.9,0,36.9-11.8,44.2-31.5H222.9z"/>
		</g>
		<circle class="st0" cx="291.3" cy="204.6" r="110.5"/>
	</g>
</g>
</svg>
