<?xml version="1.0" encoding="UTF-8"?>
<svg id="Layer_2" data-name="Layer 2" xmlns="http://www.w3.org/2000/svg" viewBox="0 0 122.93 193.28">
  <defs>
    <style>
      .cls-1 {
        fill: #8e8733;
      }
    </style>
  </defs>
  <g id="Layer_1-2" data-name="Layer 1">
    <g>
      <g>
        <path class="cls-1" d="M121.85,72.7c-2.32,12.58-8.39,23.32-17.42,32.38-2.44,2.44-4.64,5.06-6.54,7.95-6.17,9.38-8.45,19.79-7.95,30.89,.09,1.78-.4,2.33-2.25,2.29-8.67-.09-17.38-.04-26.08-.04s-17.04-.08-25.55,.07c-2.27,.03-3.14-.42-3-2.9,.4-6.83-.43-13.52-2.66-20.06-2.9-8.45-8.68-14.81-14.48-21.33C1.95,86.24-2.92,67.82,1.69,47.37c.25-1.08,.51-2.15,.82-3.2,4.12,1.24,8.01,3.07,11.64,5.53,6.05,4.12,9.83,10.08,13.7,16.08,9.37,14.44,22.85,22.31,40.01,23.1,27.69,1.29,50.27-19.66,52.39-46,.4,1.27,.74,2.56,1.04,3.85,1.93,8.23,2.21,17.03,.56,25.97Z"/>
        <path class="cls-1" d="M61.27,155.47c-7.06,0-14.12,.05-21.18-.04-1.72-.02-2.41,.31-2.33,2.21,.16,3.7,.01,7.4,.06,11.11,.05,3.67,1.84,5.69,5.5,5.72,12.14,.09,24.28,.09,36.43,0,3.66-.03,5.45-2.04,5.5-5.72,.05-3.79-.08-7.58,.06-11.37,.06-1.7-.58-1.96-2.07-1.95-7.33,.08-14.65,.04-21.97,.04Z"/>
        <path class="cls-1" d="M48.28,183.99c2.27,5.88,7.33,9.32,13.39,9.29,5.88-.03,10.9-3.53,13.11-9.29h-26.5Z"/>
      </g>
      <circle class="cls-1" cx="68.53" cy="32.73" r="32.73"/>
    </g>
  </g>
</svg>